<?xml version="1.0" encoding="UTF-8" standalone="no"?>
<svg
   id="svg1"
   width="418.32764mm"
   height="140.3078mm"
   version="1.1"
   viewBox="0 0 418.32762 140.30779"
   sodipodi:docname="expanding-tic-tac-toe5.svg"
   inkscape:version="1.4.3 (0d15f75, 2025-12-25)"
   xmlns:inkscape="http://www.inkscape.org/namespaces/inkscape"
   xmlns:sodipodi="http://sodipodi.sourceforge.net/DTD/sodipodi-0.dtd"
   xmlns="http://www.w3.org/2000/svg"
   xmlns:svg="http://www.w3.org/2000/svg">
  <defs
     id="defs1" />
  <sodipodi:namedview
     id="namedview1"
     pagecolor="#ffffff"
     bordercolor="#000000"
     borderopacity="0.25"
     inkscape:showpageshadow="2"
     inkscape:pageopacity="0.0"
     inkscape:pagecheckerboard="0"
     inkscape:deskcolor="#d1d1d1"
     inkscape:document-units="mm"
     showgrid="false"
     inkscape:zoom="0.28383156"
     inkscape:cx="-729.30579"
     inkscape:cy="354.08325"
     inkscape:window-width="2560"
     inkscape:window-height="1369"
     inkscape:window-x="-8"
     inkscape:window-y="-8"
     inkscape:window-maximized="1"
     inkscape:current-layer="g12" />
  <g
     id="layer1"
     transform="translate(20.503379,122.34968)"
     stroke-linecap="square">
    <text
       xml:space="preserve"
       style="font-weight:900;font-size:64.5161px;font-family:nunito;-inkscape-font-specification:'nunito Heavy';letter-spacing:0px;writing-mode:lr-tb;direction:ltr;fill:#484848;fill-opacity:1;stroke:none;stroke-width:7.62002;stroke-linecap:square;stroke-opacity:1;paint-order:stroke fill markers"
       x="15.319512"
       y="1.6215305"
       id="text3-1"><tspan
         sodipodi:role="line"
         id="tspan1-7"
         style="fill:#484848;fill-opacity:1;stroke:none;stroke-width:7.62;stroke-opacity:1"
         x="15.319512"
         y="1.6215305">Tic-Tac-Toe</tspan></text>
    <g
       id="g12"
       transform="rotate(2.0297502,-4072.4421,514.78222)">
      <rect
         style="fill:#f3bc5e;fill-opacity:1;stroke-width:2.20021;stroke-linecap:square;paint-order:stroke fill markers"
         id="rect2"
         width="268.03641"
         height="68.881577"
         x="21.101866"
         y="194.56589"
         ry="8.8985767"
         transform="matrix(1.5545806,0.00124967,-0.00194271,0.99999924,-75.812018,-460.62107)" />
      <text
         xml:space="preserve"
         style="font-weight:900;font-size:64.5161px;font-family:nunito;-inkscape-font-specification:'nunito Heavy';letter-spacing:0px;writing-mode:lr-tb;direction:ltr;fill:#ffffff;fill-opacity:1;stroke:none;stroke-width:7.62002;stroke-linecap:square;stroke-opacity:1;paint-order:stroke fill markers"
         x="-29.978386"
         y="-208.6788"
         id="text3-1-7"><tspan
           sodipodi:role="line"
           id="tspan1-7-6"
           style="fill:#ffffff;fill-opacity:1;stroke:none;stroke-width:7.62;stroke-opacity:1"
           x="-29.978386"
           y="-208.6788">EXPANDING</tspan></text>
      <g
         id="g7"
         stroke-opacity="0.43972"
         transform="matrix(0.69059461,-0.41296947,0.41296947,0.69059461,-86.710988,-200.52158)">
        <rect
           id="rect1"
           x="28.476"
           y="82.684998"
           width="44.463001"
           height="44.463001"
           ry="5.888"
           fill="#fa6262"
           stroke-width="3.093"
           style="fill:#f7637f;fill-opacity:1;paint-order:stroke fill markers" />
        <path
           id="text1"
           d="m 41.792,117.67 q -1.1176,0 -1.8796,-0.6096 -0.7112,-0.6604 -0.762,-1.6764 0,-1.016 0.8636,-2.1336 l 8.2296,-10.16 v 2.9972 L 40.522,96.588 q -0.9144,-1.1176 -0.8636,-2.1336 0.0508,-1.016 0.762,-1.6256 0.762,-0.6604 1.8796,-0.6604 1.1684,0 1.9304,0.4064 0.8128,0.4064 1.4732,1.27 l 6.096,7.8232 h -2.2352 l 6.1468,-7.8232 q 0.7112,-0.8636 1.4732,-1.27 0.762,-0.4064 1.8796,-0.4064 1.1684,0 1.8796,0.6604 0.7112,0.6604 0.7112,1.6764 0.0508,1.016 -0.8636,2.1336 l -7.6708,9.398 V 103.192 L 61.35,113.25 q 0.9144,1.0668 0.8636,2.0828 -0.0508,1.016 -0.8128,1.6764 -0.7112,0.6604 -1.8796,0.6604 -1.1176,0 -1.8796,-0.4064 -0.762,-0.4064 -1.4732,-1.27 l -6.604,-8.3312 h 2.1336 l -6.5532,8.3312 q -0.6604,0.8128 -1.4224,1.27 -0.762,0.4064 -1.9304,0.4064 z"
           fill="#ffffff"
           stroke-width="3.093"
           style="paint-order:stroke fill markers"
           aria-label="x" />
      </g>
      <g
         id="g8"
         transform="matrix(0.80298846,0.05171305,-0.05171305,0.80298846,226.05555,-298.18818)">
        <rect
           id="rect1-8-1-4"
           x="76.906998"
           y="131.12"
           width="44.463001"
           height="44.463001"
           ry="5.888"
           fill="#6ba1f8"
           stroke-opacity="0.43972"
           stroke-width="3.093"
           style="fill:#64c5f7;fill-opacity:1;paint-order:stroke fill markers" />
        <path
           id="path10"
           d="m 99.139,139.41 c -7.6644,0 -13.938,6.2731 -13.938,13.938 0,7.6649 6.2731,13.936 13.938,13.936 7.6644,0 13.937,-6.2712 13.937,-13.936 0,-7.6648 -6.2731,-13.938 -13.937,-13.938 z m 0,5.5078 c 4.6884,0 8.4297,3.7412 8.4297,8.4297 0,4.6885 -3.7412,8.4297 -8.4297,8.4297 -4.6884,0 -8.4297,-3.7412 -8.4297,-8.4297 0,-4.6885 3.7412,-8.4297 8.4297,-8.4297 z"
           fill="#ffffff"
           stop-color="#000000"
           style="paint-order:stroke fill markers" />
      </g>
    </g>
    <g
       id="g11"
       transform="rotate(6.8479175,306.15992,-23.200825)">
      <g
         id="g1"
         transform="matrix(1.5474203,-0.13782983,0.04553746,1.000572,-75.613123,-223.47501)">
        <g
           id="g6"
           transform="translate(-26.421837,-192.01327)"
           stroke-opacity="0.43972" />
      </g>
      <g
         id="g9"
         transform="rotate(-2.6600991,199.73639,-60.13872)" />
    </g>
  </g>
</svg>
