<?xml version="1.0" encoding="UTF-8"?>
<svg id="svg1" width="418.33mm" height="140.31mm" version="1.1" viewBox="0 0 418.33 140.31" xmlns="http://www.w3.org/2000/svg">
 <g id="layer1" transform="translate(20.503 122.35)" stroke-linecap="square">
  <path id="text3-1" d="m36.094 2.2022q-2.8387 0-4.3871-1.5484-1.5484-1.6129-1.5484-4.4516v-30.387h-10.129q-2.3871 0-3.6774-1.2258-1.2258-1.2903-1.2258-3.6129 0-2.3871 1.2258-3.6129 1.2903-1.2258 3.6774-1.2258h32.129q2.3871 0 3.6129 1.2258 1.2903 1.2258 1.2903 3.6129 0 2.3226-1.2903 3.6129-1.2258 1.2258-3.6129 1.2258h-10.129v30.387q0 2.8387-1.4839 4.4516-1.4839 1.5484-4.4516 1.5484zm33.149 0q-2.7097 0-4.1935-1.6129-1.4839-1.6129-1.4839-4.6452v-20.387q0-3.0323 1.4839-4.6452 1.4839-1.6129 4.1935-1.6129 2.7742 0 4.2581 1.6129 1.5484 1.6129 1.5484 4.6452v20.387q0 3.0323-1.4839 4.6452-1.4839 1.6129-4.3226 1.6129zm0-37.484q-3.0323 0-4.7097-1.4194-1.6129-1.4194-1.6129-4.129 0-2.6452 1.6129-4.0645 1.6774-1.4194 4.7097-1.4194 3.1613 0 4.7742 1.4194 1.6129 1.4194 1.6129 4.0645 0 2.7097-1.6129 4.129-1.6129 1.4194-4.7742 1.4194zm28.645 37.613q-5.3548 0-9.3548-2-3.9355-2-6.129-5.7419-2.1935-3.8064-2.1935-8.9032 0-3.871 1.2258-6.9032 1.2258-3.0968 3.5484-5.2258 2.3871-2.129 5.6129-3.2258 3.2903-1.1613 7.2903-1.1613 1.871 0 3.9355 0.3871 2.0645 0.32258 4.2581 1.2903 1.5484 0.58064 2.129 1.8065 0.64516 1.1613 0.51613 2.5161-0.0645 1.3548-0.7742 2.4516-0.64516 1.0968-1.871 1.4839-1.1613 0.3871-2.6452-0.32258-1.0323-0.51613-2.1936-0.70968-1.0968-0.25806-2.129-0.25806-1.7419 0-3.0968 0.51613-1.2903 0.51613-2.1935 1.5484-0.90322 0.96774-1.4194 2.4516-0.45161 1.4839-0.45161 3.3548 0 3.7419 1.871 5.871 1.871 2.129 5.2903 2.129 1.0323 0 2.129-0.19355 1.0968-0.25806 2.1936-0.77419 1.4839-0.70968 2.6452-0.25806 1.1613 0.3871 1.871 1.4839 0.70968 1.0968 0.7742 2.4516 0.0645 1.2903-0.58065 2.5161-0.64516 1.1613-2.1936 1.7419-2.129 0.96774-4.1935 1.2903-2 0.3871-3.871 0.3871zm19.032-13.548q-1.9355 0-3.2258-1.2903t-1.2903-3.2258 1.2903-3.1613q1.2903-1.2903 3.2258-1.2903h12.774q1.9355 0 3.2258 1.2903 1.2903 1.2258 1.2903 3.1613t-1.2903 3.2258-3.2258 1.2903zm38.305 13.419q-2.8387 0-4.3871-1.5484-1.5484-1.6129-1.5484-4.4516v-30.387h-10.129q-2.3871 0-3.6774-1.2258-1.2258-1.2903-1.2258-3.6129 0-2.3871 1.2258-3.6129 1.2903-1.2258 3.6774-1.2258h32.129q2.3871 0 3.6129 1.2258 1.2903 1.2258 1.2903 3.6129 0 2.3226-1.2903 3.6129-1.2258 1.2258-3.6129 1.2258h-10.129v30.387q0 2.8387-1.4839 4.4516-1.4839 1.5484-4.4516 1.5484zm30.047 0.12903q-3.6774 0-6.5161-1.3548-2.7742-1.3548-4.3871-3.6774-1.5484-2.3871-1.5484-5.4194 0-3.4839 1.8064-5.4839t5.8064-2.8387q4-0.90322 10.645-0.90322h3.5484v5.4194h-3.5484q-2.5161 0-4.1936 0.3871-1.6129 0.32258-2.3871 1.0968-0.77419 0.70968-0.77419 1.871 0 1.4839 1.0323 2.4516 1.0968 0.96774 3.0968 0.96774 1.6129 0 2.8387-0.70968 1.2903-0.70968 2.0645-1.9355 0.7742-1.2903 0.7742-2.9677v-7.4839q0-2.3226-1.2258-3.2903-1.1613-0.96774-4.0645-0.96774-1.5484 0-3.4839 0.3871-1.9355 0.32258-4.3226 1.2258-1.7419 0.64516-2.9677 0.19355-1.2258-0.45161-1.9355-1.5484-0.64517-1.0968-0.64517-2.3871 0.0645-1.2903 0.83871-2.4516 0.83871-1.1613 2.5161-1.8065 3.0968-1.1613 5.6774-1.5484 2.6452-0.3871 4.8387-0.3871 5.2903 0 8.7097 1.5484 3.4839 1.4839 5.1613 4.6452 1.7419 3.0968 1.7419 8v13.032q0 2.8387-1.3548 4.3226-1.3548 1.4839-3.9355 1.4839-2.6452 0-4.0645-1.4839-1.3548-1.4839-1.3548-4.3226v-1.6774l0.3871 0.90323q-0.32258 2.0645-1.4839 3.5484-1.1613 1.4839-3.0323 2.3226-1.871 0.83871-4.2581 0.83871zm41.806 0q-5.3548 0-9.3548-2-3.9355-2-6.129-5.7419-2.1936-3.8064-2.1936-8.9032 0-3.871 1.2258-6.9032 1.2258-3.0968 3.5484-5.2258 2.3871-2.129 5.6129-3.2258 3.2903-1.1613 7.2903-1.1613 1.871 0 3.9355 0.3871 2.0645 0.32258 4.2581 1.2903 1.5484 0.58064 2.129 1.8065 0.64516 1.1613 0.51613 2.5161-0.0645 1.3548-0.7742 2.4516-0.64516 1.0968-1.871 1.4839-1.1613 0.3871-2.6452-0.32258-1.0323-0.51613-2.1936-0.70968-1.0968-0.25806-2.129-0.25806-1.7419 0-3.0968 0.51613-1.2903 0.51613-2.1935 1.5484-0.90323 0.96774-1.4194 2.4516-0.45161 1.4839-0.45161 3.3548 0 3.7419 1.871 5.871 1.871 2.129 5.2903 2.129 1.0323 0 2.129-0.19355 1.0968-0.25806 2.1936-0.77419 1.4839-0.70968 2.6452-0.25806 1.1613 0.3871 1.871 1.4839 0.70968 1.0968 0.7742 2.4516 0.0645 1.2903-0.58065 2.5161-0.64516 1.1613-2.1936 1.7419-2.129 0.96774-4.1935 1.2903-2 0.3871-3.871 0.3871zm19.032-13.548q-1.9355 0-3.2258-1.2903t-1.2903-3.2258 1.2903-3.1613q1.2903-1.2903 3.2258-1.2903h12.774q1.9355 0 3.2258 1.2903 1.2903 1.2258 1.2903 3.1613t-1.2903 3.2258-3.2258 1.2903zm38.305 13.419q-2.8387 0-4.3871-1.5484-1.5484-1.6129-1.5484-4.4516v-30.387h-10.129q-2.3871 0-3.6774-1.2258-1.2258-1.2903-1.2258-3.6129 0-2.3871 1.2258-3.6129 1.2903-1.2258 3.6774-1.2258h32.129q2.3871 0 3.6129 1.2258 1.2903 1.2258 1.2903 3.6129 0 2.3226-1.2903 3.6129-1.2258 1.2258-3.6129 1.2258h-10.129v30.387q0 2.8387-1.4839 4.4516-1.4839 1.5484-4.4516 1.5484zm35.079 0.12903q-5.2903 0-9.2258-2-3.9355-2-6.129-5.7419-2.1936-3.7419-2.1936-8.8387 0-3.871 1.2258-6.9032 1.2258-3.0968 3.5484-5.2258 2.3226-2.1935 5.5484-3.2903 3.2258-1.1613 7.2258-1.1613 5.2903 0 9.2258 2 3.9355 2 6.0645 5.7419 2.1936 3.6774 2.1936 8.8387 0 3.8064-1.2258 6.9032-1.2258 3.0968-3.5484 5.2903-2.2581 2.129-5.5484 3.2903-3.2258 1.0968-7.1613 1.0968zm0-8.4516q1.7419 0 3.0968-0.83871 1.3548-0.90323 2.0645-2.6452 0.77419-1.8065 0.77419-4.6452 0-4.3226-1.6774-6.1935-1.6774-1.9355-4.2581-1.9355-1.7419 0-3.0968 0.83871-1.3548 0.83871-2.129 2.6452-0.77419 1.7419-0.77419 4.6452 0 4.2581 1.6774 6.1935 1.6774 1.9355 4.3226 1.9355zm40.064 8.4516q-5.8064 0-10.065-2-4.1935-2.0645-6.4516-5.8064-2.2581-3.7419-2.2581-8.8387 0-4.9032 2.129-8.5806 2.1936-3.7419 5.9355-5.8064 3.8064-2.129 8.6452-2.129 3.5484 0 6.4516 1.1613 2.9032 1.0968 4.9677 3.2903 2.0645 2.129 3.0968 5.1613 1.0968 3.0323 1.0968 6.7742 0 1.2903-0.70967 1.9355-0.70968 0.58064-2.2581 0.58064h-19.742v-5.4194h14.323l-1.0323 0.83871q0-2.3871-0.64516-3.871t-1.9355-2.2581q-1.2258-0.77419-3.0968-0.77419-2 0-3.4839 0.96774-1.4194 0.90322-2.1936 2.7097t-0.77419 4.5161v0.58064q0 4.5806 2 6.5806 2.0645 1.9355 6.3226 1.9355 1.4194 0 3.2258-0.32258 1.871-0.3871 3.5484-1.0323 1.6774-0.64516 2.9032-0.19355 1.2258 0.3871 1.871 1.4194 0.70968 0.96774 0.7742 2.2581 0.0645 1.2258-0.58065 2.4516-0.64516 1.1613-2.129 1.8065-2.2581 1.0323-4.8387 1.5484-2.5161 0.51613-5.0968 0.51613z" fill="#484848" stroke-width="7.62" style="paint-order:stroke fill markers" aria-label="Tic-Tac-Toe"/>
  <g id="g12" transform="rotate(2.0298 -4072.4 514.78)">
   <rect id="rect2" transform="matrix(1.5546 .0012497 -.0019427 1 -75.812 -460.62)" x="21.102" y="194.57" width="268.04" height="68.882" ry="8.8986" fill="#f3bc5e" stroke-linecap="square" stroke-width="2.2002" style="paint-order:stroke fill markers"/>
   <path id="text3-1-7" d="m-19.656-208.68q-3.0323 0-4.6452-1.5484-1.5484-1.6129-1.5484-4.5806v-33.226q0-2.9677 1.5484-4.5161 1.6129-1.6129 4.6452-1.6129h21.871q2.3226 0 3.4839 1.1613 1.1613 1.1613 1.1613 3.3548 0 2.2581-1.1613 3.4839-1.1613 1.1613-3.4839 1.1613h-16.71v8.6452h15.29q2.2581 0 3.4194 1.1613 1.2258 1.1613 1.2258 3.4194 0 2.2581-1.2258 3.4194-1.1613 1.1613-3.4194 1.1613h-15.29v9.3548h16.71q2.3226 0 3.4839 1.2258 1.1613 1.1613 1.1613 3.3548 0 2.2581-1.1613 3.4194-1.1613 1.1613-3.4839 1.1613zm37.496 0.58064q-2.2581 0-3.7419-1.2258-1.4839-1.2258-1.7419-3.0968-0.19355-1.871 1.2903-3.8064l13.677-18.064v5.3548l-13.29-17.613q-1.4839-2-1.2903-3.871 0.25806-1.871 1.7419-3.0968t3.7419-1.2258q1.871 0 3.2903 0.90323 1.4194 0.90322 2.8387 2.9032l9.6129 13.355h-3.871l9.6774-13.355q1.4194-2.0645 2.8387-2.9032 1.4194-0.90323 3.2903-0.90323 2.3226 0 3.8064 1.2258 1.4839 1.1613 1.6774 3.0323 0.25806 1.871-1.2903 3.9355l-13.355 17.613v-5.3548l13.677 18.064q1.5484 1.9355 1.2903 3.8064-0.19355 1.871-1.6774 3.0968-1.4839 1.2258-3.8064 1.2258-1.8065 0-3.2258-0.83871-1.4194-0.90322-2.9032-2.9677l-9.9355-13.742h3.7419l-9.871 13.742q-1.4839 2.0645-2.9032 2.9677-1.4194 0.83871-3.2903 0.83871zm46.774 0q-2.8387 0-4.3871-1.5484-1.5484-1.6129-1.5484-4.4516v-34.064q0-2.9032 1.5484-4.4516 1.6129-1.5484 4.4516-1.5484h15.871q7.7419 0 11.935 4 4.2581 3.9355 4.2581 10.903t-4.2581 10.968q-4.1935 3.9355-11.935 3.9355h-10v10.258q0 2.8387-1.4839 4.4516-1.4839 1.5484-4.4516 1.5484zm5.9355-25.355h7.9355q3.3548 0 5.1613-1.4194 1.8065-1.4839 1.8065-4.3871 0-2.9677-1.8065-4.3871-1.8064-1.4194-5.1613-1.4194h-7.9355zm29.079 25.355q-2 0-3.3548-0.90322-1.3548-0.96774-1.6774-2.5806-0.32258-1.6774 0.58064-3.7419l16.065-34.581q1.1613-2.5161 2.8387-3.6774 1.7419-1.1613 3.9355-1.1613 2.1936 0 3.8064 1.1613 1.6774 1.1613 2.9032 3.6774l16.065 34.581q1.0322 2.0645 0.70967 3.7419-0.25806 1.6774-1.6129 2.5806-1.2903 0.90322-3.2258 0.90322-2.5806 0-4-1.1613-1.3548-1.1613-2.4516-3.7419l-3.4839-8.1936 4.5161 3.2903h-26.581l4.5806-3.2903-3.4839 8.1936q-1.1613 2.5806-2.3871 3.7419t-3.7419 1.1613zm18.258-33.677-7.4839 17.871-1.8064-3.0968h18.774l-1.8064 3.0968-7.5484-17.871zm34.387 33.677q-2.7097 0-4.129-1.4194-1.4194-1.4194-1.4194-4.1936v-35.161q0-2.8387 1.4194-4.3226 1.4194-1.5484 3.7419-1.5484 2.0645 0 3.2258 0.7742 1.1613 0.77419 2.5806 2.5806l20.452 25.548h-1.8064v-23.355q0-2.7097 1.3548-4.129 1.4194-1.4194 4.129-1.4194 2.7097 0 4.0645 1.4194 1.4194 1.4194 1.4194 4.129v35.742q0 2.4516-1.2903 3.9355-1.2903 1.4194-3.4839 1.4194-2.1935 0-3.4839-0.77419-1.2258-0.83871-2.6452-2.5806l-20.452-25.613h1.8064v23.355q0 2.7742-1.4194 4.1936-1.3548 1.4194-4.0645 1.4194zm49.548-0.58064q-3.0322 0-4.6452-1.5484-1.5484-1.6129-1.5484-4.5806v-33.226q0-2.9677 1.5484-4.5161 1.6129-1.6129 4.6452-1.6129h12.645q11.871 0 18.323 5.9355 6.5161 5.9355 6.5161 16.774 0 5.4194-1.6774 9.6774-1.6774 4.1936-4.8387 7.1613-3.1613 2.9032-7.8064 4.4516-4.5806 1.4839-10.516 1.4839zm5.6774-9.6129h6.1936q3.4194 0 5.871-0.83871 2.5161-0.83871 4.129-2.4516 1.6774-1.6129 2.4516-4.0645 0.83871-2.4516 0.83871-5.8064 0-6.7097-3.2903-9.871-3.2903-3.2258-10-3.2258h-6.1936zm44.774 10.194q-2.8387 0-4.3871-1.5484-1.5484-1.6129-1.5484-4.5161v-34.516q0-2.9677 1.5484-4.5161t4.3871-1.5484q2.9032 0 4.3871 1.5484 1.5484 1.5484 1.5484 4.5161v34.516q0 2.9032-1.4839 4.5161-1.4839 1.5484-4.4516 1.5484zm19.742 0q-2.7097 0-4.129-1.4194-1.4194-1.4194-1.4194-4.1936v-35.161q0-2.8387 1.4194-4.3226 1.4194-1.5484 3.7419-1.5484 2.0645 0 3.2258 0.7742 1.1613 0.77419 2.5806 2.5806l20.452 25.548h-1.8064v-23.355q0-2.7097 1.3548-4.129 1.4194-1.4194 4.129-1.4194 2.7097 0 4.0645 1.4194 1.4194 1.4194 1.4194 4.129v35.742q0 2.4516-1.2903 3.9355-1.2903 1.4194-3.4839 1.4194-2.1936 0-3.4839-0.77419-1.2258-0.83871-2.6452-2.5806l-20.452-25.613h1.8064v23.355q0 2.7742-1.4194 4.1936-1.3548 1.4194-4.0645 1.4194zm66.581 0.12903q-7.8064 0-13.29-2.9032-5.4194-2.9032-8.2581-8.129-2.8387-5.2258-2.8387-12.194 0-5.4194 1.6774-9.7419 1.7419-4.3871 4.9677-7.4839 3.2258-3.1613 7.871-4.7742 4.7097-1.6774 10.645-1.6774 3.2258 0 6.5806 0.64516 3.3548 0.58065 6.5806 2.2581 1.6774 0.77419 2.2581 2.1935 0.64516 1.3548 0.38709 2.9032-0.19355 1.4839-1.0968 2.7742-0.83871 1.2258-2.3226 1.6774-1.4839 0.38709-3.3548-0.45161-1.9355-0.90323-4.1935-1.3548-2.2581-0.51613-4.7742-0.51613-4.3226 0-7.2258 1.5484-2.8387 1.5484-4.2581 4.5806-1.4194 3.0322-1.4194 7.4194 0 6.5806 3.2258 9.9355 3.2258 3.3548 9.5484 3.3548 1.9355 0 4.1936-0.3871 2.3226-0.3871 4.6452-1.0968l-2.1936 4.4516v-11.032h-4.5161q-2.1935 0-3.4194-1.0968-1.1613-1.0968-1.1613-3.0968t1.1613-3.0323q1.2258-1.0968 3.4194-1.0968h9.5484q2.2581 0 3.4194 1.2258 1.2258 1.1613 1.2258 3.4194v14.258q0 1.9355-0.8387 3.2903-0.7742 1.3548-2.5161 1.9355-3.0323 1.0322-6.5806 1.6129-3.5484 0.58064-7.0968 0.58064z" fill="#fff" stroke-width="7.62" style="paint-order:stroke fill markers" aria-label="EXPANDING"/>
   <g id="g7" transform="matrix(.69059 -.41297 .41297 .69059 -86.711 -200.52)" stroke-opacity=".43972" stroke-width="3.093">
    <rect id="rect1" x="28.476" y="82.685" width="44.463" height="44.463" ry="5.888" fill="#f7637f" style="paint-order:stroke fill markers"/>
    <path id="text1" d="m41.792 117.67q-1.1176 0-1.8796-0.6096-0.7112-0.6604-0.762-1.6764 0-1.016 0.8636-2.1336l8.2296-10.16v2.9972l-7.7216-9.4996q-0.9144-1.1176-0.8636-2.1336t0.762-1.6256q0.762-0.6604 1.8796-0.6604 1.1684 0 1.9304 0.4064 0.8128 0.4064 1.4732 1.27l6.096 7.8232h-2.2352l6.1468-7.8232q0.7112-0.8636 1.4732-1.27t1.8796-0.4064q1.1684 0 1.8796 0.6604t0.7112 1.6764q0.0508 1.016-0.8636 2.1336l-7.6708 9.398v-2.8448l8.2296 10.058q0.9144 1.0668 0.8636 2.0828t-0.8128 1.6764q-0.7112 0.6604-1.8796 0.6604-1.1176 0-1.8796-0.4064t-1.4732-1.27l-6.604-8.3312h2.1336l-6.5532 8.3312q-0.6604 0.8128-1.4224 1.27-0.762 0.4064-1.9304 0.4064z" fill="#fff" style="paint-order:stroke fill markers" aria-label="x"/>
   </g>
   <g id="g8" transform="matrix(.80299 .051713 -.051713 .80299 226.06 -298.19)">
    <rect id="rect1-8-1-4" x="76.907" y="131.12" width="44.463" height="44.463" ry="5.888" fill="#64c5f7" stroke-opacity=".43972" stroke-width="3.093" style="paint-order:stroke fill markers"/>
    <path id="path10" d="m99.139 139.41c-7.6644 0-13.938 6.2731-13.938 13.938s6.2731 13.936 13.938 13.936c7.6644 0 13.937-6.2712 13.937-13.936s-6.2731-13.938-13.937-13.938zm0 5.5078c4.6884 0 8.4297 3.7412 8.4297 8.4297s-3.7412 8.4297-8.4297 8.4297c-4.6884 0-8.4297-3.7412-8.4297-8.4297s3.7412-8.4297 8.4297-8.4297z" fill="#fff" stop-color="#000000" style="paint-order:stroke fill markers"/>
   </g>
  </g>
  <g id="g11" transform="rotate(6.8479 306.16 -23.201)">
   <g id="g1" transform="matrix(1.5474 -.13783 .045537 1.0006 -75.613 -223.48)"></g>
  </g>
 </g>
</svg>
