<?xml version="1.0" encoding="UTF-8"?>
<svg id="svg1" width="93.952mm" height="93.956mm" version="1.1" viewBox="0 0 93.952 93.956" xmlns="http://www.w3.org/2000/svg">
 <g id="layer1" transform="translate(-28.476 -89.654)" stroke-linecap="square">
  <g id="g9" transform="translate(0,6.9695)">
   <g id="g6" transform="translate(0,1.0583)" stroke-opacity=".43972" stroke-width="3.093">
    <rect id="rect1-8-1" x="28.476" y="131.12" width="44.463" height="44.463" ry="5.888" fill="#fc6" style="paint-order:stroke fill markers"/>
    <path id="text1-1-1-8" d="m50.707 166.2q-1.3208 0-2.032-0.7112-0.7112-0.762-0.7112-2.0828v-7.5692h-7.4168q-1.27 0-1.9812-0.6604-0.7112-0.7112-0.7112-1.9812t0.7112-1.9304q0.7112-0.7112 1.9812-0.7112h7.4168v-7.2644q0-1.3716 0.7112-2.0828t2.0828-0.7112q1.3208 0 1.9812 0.7112 0.7112 0.7112 0.7112 2.0828v7.2644h7.4168q1.3208 0 1.9812 0.7112 0.7112 0.6604 0.7112 1.9304t-0.7112 1.9812q-0.6604 0.6604-1.9812 0.6604h-7.4168v7.5692q0 1.3208-0.7112 2.0828-0.6604 0.7112-2.032 0.7112z" fill="#fff" style="paint-order:stroke fill markers" aria-label="+"/>
   </g>
   <g id="g7" stroke-opacity=".43972" stroke-width="3.093">
    <rect id="rect1" x="28.476" y="82.685" width="44.463" height="44.463" ry="5.888" fill="#f7637c" style="paint-order:stroke fill markers"/>
    <path id="text1" d="m41.792 117.67q-1.1176 0-1.8796-0.6096-0.7112-0.6604-0.762-1.6764 0-1.016 0.8636-2.1336l8.2296-10.16v2.9972l-7.7216-9.4996q-0.9144-1.1176-0.8636-2.1336t0.762-1.6256q0.762-0.6604 1.8796-0.6604 1.1684 0 1.9304 0.4064 0.8128 0.4064 1.4732 1.27l6.096 7.8232h-2.2352l6.1468-7.8232q0.7112-0.8636 1.4732-1.27t1.8796-0.4064q1.1684 0 1.8796 0.6604t0.7112 1.6764q0.0508 1.016-0.8636 2.1336l-7.6708 9.398v-2.8448l8.2296 10.058q0.9144 1.0668 0.8636 2.0828t-0.8128 1.6764q-0.7112 0.6604-1.8796 0.6604-1.1176 0-1.8796-0.4064t-1.4732-1.27l-6.604-8.3312h2.1336l-6.5532 8.3312q-0.6604 0.8128-1.4224 1.27-0.762 0.4064-1.9304 0.4064z" fill="#fff" style="paint-order:stroke fill markers" aria-label="x"/>
   </g>
   <g id="g8" transform="translate(1.0583,1.0583)">
    <rect id="rect1-8-1-4" x="76.907" y="131.12" width="44.463" height="44.463" ry="5.888" fill="#6cf" stroke-opacity=".43972" stroke-width="3.093" style="paint-order:stroke fill markers"/>
    <path id="path10" d="m99.139 139.41c-7.6644 0-13.938 6.2731-13.938 13.938s6.2731 13.936 13.938 13.936c7.6644 0 13.937-6.2712 13.937-13.936s-6.2731-13.938-13.937-13.938zm0 5.5078c4.6884 0 8.4297 3.7412 8.4297 8.4297s-3.7412 8.4297-8.4297 8.4297c-4.6884 0-8.4297-3.7412-8.4297-8.4297s3.7412-8.4297 8.4297-8.4297z" fill="#fff" stop-color="#000000" style="paint-order:stroke fill markers"/>
   </g>
   <g id="g5" transform="translate(1.0583)" stroke-opacity=".43972" stroke-width="3.093">
    <rect id="rect1-8" x="76.907" y="82.685" width="44.463" height="44.463" ry="5.888" fill="#fc6" style="paint-order:stroke fill markers"/>
    <path id="text1-1-1" d="m99.139 117.77q-1.3208 0-2.032-0.7112-0.7112-0.762-0.7112-2.0828v-7.5692h-7.4168q-1.27 0-1.9812-0.6604-0.7112-0.7112-0.7112-1.9812t0.7112-1.9304q0.7112-0.7112 1.9812-0.7112h7.4168v-7.2644q0-1.3716 0.7112-2.0828t2.0828-0.7112q1.3208 0 1.9812 0.7112 0.7112 0.7112 0.7112 2.0828v7.2644h7.4168q1.3208 0 1.9812 0.7112 0.7112 0.6604 0.7112 1.9304t-0.7112 1.9812q-0.6604 0.6604-1.9812 0.6604h-7.4168v7.5692q0 1.3208-0.7112 2.0828-0.6604 0.7112-2.032 0.7112z" fill="#fff" style="paint-order:stroke fill markers" aria-label="+"/>
   </g>
  </g>
 </g>
</svg>
